<?xml version="1.0" encoding="UTF-8"?>
<!DOCTYPE svg PUBLIC "-//W3C//DTD SVG 1.1//EN" "http://www.w3.org/Graphics/SVG/1.1/DTD/svg11.dtd">
<!-- Creator: CorelDRAW 2021 (64-Bit) -->
<svg xmlns="http://www.w3.org/2000/svg" xml:space="preserve" width="83.9304mm" height="21.085mm" version="1.1" style="shape-rendering:geometricPrecision; text-rendering:geometricPrecision; image-rendering:optimizeQuality; fill-rule:evenodd; clip-rule:evenodd"
viewBox="0 0 378.24 95.02"
 xmlns:xlink="http://www.w3.org/1999/xlink"
 xmlns:xodm="http://www.corel.com/coreldraw/odm/2003">
 <defs>
  <style type="text/css">
   <![CDATA[
    .fil4 {fill:#2B2A29}
    .fil1 {fill:black}
    .fil3 {fill:lime}
    .fil5 {fill:#4BFE4B}
    .fil0 {fill:#FEFEFE}
    .fil2 {fill:#FF6600}
   ]]>
  </style>
 </defs>
 <g id="Layer_x0020_1">
  <metadata id="CorelCorpID_0Corel-Layer"/>
  <g id="_1451958415536">
   <path class="fil0" d="M92.94 0l0.75 0c1.31,0.08 2.6,0.58 3.76,1.35 0.99,0.66 1.83,1.57 2.5,2.52 3.1,4.39 3.37,9.58 0.85,14.31 -1.52,2.86 -5.67,6.62 -8.51,8.12 0,0.5 -0.22,2.45 -0.35,2.73l269.32 0c5.77,-0 11.17,2.29 14.31,6.99 1.59,2.39 2.67,5.63 2.67,9.03 0,3.38 -0.34,6.07 -1.73,8.83 -0.76,1.51 -1.58,2.85 -2.73,4.04 -3.91,4.06 -9.53,5.26 -15.07,5.26l0 13.46 -116.58 0c0.32,0.43 1.8,1.11 2.32,1.46 0.78,0.52 1.56,0.94 2.36,1.43 1.89,1.14 2.8,2.33 2.8,4.77 0,3.22 -0.1,4.64 -2.8,6.26l-2.8 1.69c-0.64,0.42 -1.26,0.76 -1.92,1.16 -2.52,1.51 -1.76,1.53 -4.45,1.53l-27.1 0c-7.93,0 -15.67,0.09 -23.64,0.09l-0.38 0 -0.38 0 -0.38 0 -0.38 0 -0.38 0 -0.38 0 -0.38 0 -0.38 0 -0.38 0 -0.38 0 -0.38 0 -0.38 0 -0.38 0 -0.38 0 -0.38 0 -0.38 0 -0.38 0 -0.38 0 -0.38 0 -0.38 0 -0.38 0 -0.38 0 -0.38 0 -0.38 0 -0.38 0 -0.38 0 -0.38 0 -0.38 0 -0.38 0 -0.38 0 -0.38 0 -0.38 0 -0.38 0 -0.38 0 -0.38 0 -0.38 0 -0.38 0 -0.38 0 -0.38 0 -0.38 0 -0.38 0 -0.38 0 -0.38 0 -0.38 0 -0.38 0 -0.38 0 -0.38 0 -0.38 0 -0.38 0 -0.38 0 -0.38 0 -0.38 0 -0.38 0 -0.38 0 -0.38 0 -0.38 0 -0.38 0 -0.38 0 -0.38 0 -0.38 0 -0.38 0 -0.38 0 -0.38 0 -0.38 0 -0.38 0c-0.4,0 -3.61,-2.1 -4.33,-2.53 -0.5,-0.3 -0.92,-0.55 -1.43,-0.86 -0.51,-0.31 -0.92,-0.55 -1.43,-0.86 -0.45,-0.27 -1,-0.59 -1.37,-0.92 -0.65,-0.58 -1.47,-1.82 -1.47,-3.01 0,-2.55 -0.36,-4 0.98,-5.8 0.7,-0.94 3.87,-2.63 5.12,-3.33 0.3,-0.18 0.77,-0.42 1.03,-0.64 -37.8,0 -75.61,0 -113.41,0l-4.57 -0.18c-3.32,-0.28 -6.7,-0.92 -9.75,-2.13 -2.55,-1.01 -5.09,-2.74 -6.81,-4.89 -0.74,-0.92 -1.36,-1.76 -1.97,-2.78 -2.49,-4.15 -2.89,-3.14 -8.06,0.73 -1.24,0.93 -2.37,1.96 -3.53,2.98 -0.69,0.61 -1.24,1.34 -1.89,1.98 -0.28,0.28 -0.38,0.39 -0.63,0.69l-1.79 2.08c-1.61,1.85 -3.07,3.84 -4.71,5.67 -0.51,0.57 -1.81,2.4 -2.4,2.79l0.09 -3.52c-0,-0.51 0.07,-0.64 0.09,-1.05l0.24 -6.89c0.15,-1.11 0.05,-2.36 0.18,-3.42 0.42,-3.37 1.64,-6.78 3.41,-9.43l1.55 -2.06c4.66,-4.72 1.92,-2.2 -1.02,-8.26l-0.62 -1.67c-1.62,-5.5 -1.14,-11.69 1.8,-16.57 1.19,-1.97 2.92,-3.57 4.98,-4.61 0.95,-0.48 1.41,-0.41 2.76,-0.41 -0.05,-0.65 -0.33,-1.58 -0.42,-2.22 -0.36,-2.56 -0.14,-5.2 0.57,-7.65 0.1,-0.36 0.25,-0.77 0.4,-1.1 0.48,-1.03 1,-1.94 1.65,-2.83 0.8,-1.08 2.01,-2.1 3.24,-2.74 7.47,-3.92 15.4,2.6 14.05,11.41 -0.41,2.69 -1.01,3.28 -2.09,5.3 0.4,-0.01 0.35,-0.09 0.79,-0.09 0.71,0 0.85,0.32 1.41,0.62 0.23,-0.44 0.32,-1.05 0.6,-1.42 0.71,-0.95 2.89,-1.83 4.15,-1.83 0.68,0 0.89,0.23 1.41,0.35 0.53,-1 1.17,-2.14 2.11,-2.82 1.83,-1.31 1.73,-0.79 3.7,-0.79 0.88,-1.31 2.35,-2.02 4.05,-2.02 1.5,0 1.62,0.2 2.64,0.88 0.13,-0.25 0.23,-0.49 0.39,-0.76 0.43,-0.71 0.91,-1.38 1.48,-1.95 0.73,-0.73 1.63,-1.62 2.71,-1.87 0,-1.31 0.15,-4.83 0.4,-5.93 0.72,-3.12 3.27,-4.72 6.46,-4.72 2.39,0 5.01,2.85 5.01,5.37 0.38,-0.01 0.47,-0.1 0.84,-0.22 0.83,-0.25 1.93,-0.17 2.59,-0.58 0.41,-0.26 0.89,-0.5 1.45,-0.67 1.86,-0.54 1.53,-0.2 2.43,-0.12 0.64,-0.96 1.51,-1.68 2.69,-2.15 2.63,-1.05 2.61,-0.33 3.47,0.13 0.75,-1.42 0.1,-1.35 1.83,-2.39 0.73,-0.44 2.13,-0.95 3.27,-0.95 0.47,0 1.07,0.44 1.41,0.62 0.15,-0.56 1.46,-1.67 1.95,-2.01 0.9,-0.61 1.86,-0.92 2.83,-0.98z"/>
   <path class="fil1" d="M291.95 71.87c1.29,0.11 9.49,0.03 11.45,0.03l0 -19.71 5.07 19.7 10.06 0 5.03 -19.65 0.06 19.63c1.08,0.09 9.66,0.04 11.41,0.02l0 -38.55 -16.72 -0 -4.76 18.6c0,-0.02 -0.02,-0.07 -0.02,-0.06 -0,0.01 -0.03,-0.05 -0.03,-0.06 -0.01,-0.02 -0.05,-0.1 -0.06,-0.13l-3.52 -13.64c-0.38,-1.44 -0.96,-3.28 -1.2,-4.7l-16.77 -0.01 0 38.53z"/>
   <path class="fil1" d="M122.18 61.4l-0.02 -17.59c6.54,0 8.65,0.97 8.67,8.8 0.01,2.58 -0.11,5.49 -1.49,7.22 -1.45,1.82 -4.66,1.57 -7.16,1.57zm-13.49 10.46c0.87,0.12 15.4,0.04 17.56,0.04 3.05,0 7.26,-0.72 9.59,-1.95 5.62,-2.96 8.01,-8.29 8.42,-14.63 0.23,-3.6 0.02,-7.15 -0.94,-10.45 -0.44,-1.51 -0.98,-2.79 -1.7,-4.02 -0.69,-1.18 -1.72,-2.57 -2.52,-3.29 -5.47,-4.99 -11.64,-4.22 -18.84,-4.22 -1.65,0 -10.76,-0.11 -11.58,0.04l0 38.48z"/>
   <path class="fil1" d="M151.83 71.9l32.89 0c-0.01,-3.19 0.05,-7.4 -0.04,-10.47l-19.35 0 0 -4.9 17.46 -0 -0 -9.66 -17.43 -0 -0.03 -3.51 18.79 -0.01 0.03 -10 -32.31 -0 -0.01 38.56z"/>
   <path class="fil2" d="M84 28.45c-0.37,-0.73 0.32,-2.55 0.74,-3.03 0.03,0.77 -0.09,3.04 -0.74,3.03zm-24.04 -7.55c0.53,0.71 0.55,4.5 -0.14,5.84 -0.97,1.88 -2.51,0.13 -1.83,-3.33 0.21,-1.07 0.89,-2.51 1.97,-2.5zm12.06 -5.25c0.45,1.12 0.44,2.75 0.26,4.1 -0.08,0.61 -0.22,1.33 -0.47,1.81 -0.93,1.78 -2.44,0.15 -1.82,-3.31 0.23,-1.26 0.79,-2.46 2.04,-2.6zm16.49 3.97c0.18,-0.43 0.68,-1.11 0.94,-1.54 1.01,-1.65 1.73,-3.37 2.3,-5.27 0.72,-2.38 0.55,-5.18 1.71,-5.85 1.46,-0.85 2.82,2.44 2.37,4.83 -0.27,1.42 -0.98,2.45 -1.66,3.36 -1.08,1.44 -4.03,3.73 -5.66,4.47zm-47.33 13.82c-0.39,0.87 -0.79,1.76 -1.31,2.34 -0.57,-0.03 -0.55,-0.2 -0.56,-0.76 -0.01,-0.46 -0.04,-0.93 0.02,-1.38 -0.34,-2.9 1,-6.39 -2.15,-5.09 -1.32,0.55 -1.26,0.94 -1.33,2.5 -0.03,0.76 -0.1,2.96 -0.42,3.52 0.12,1.3 -1.35,3.74 -1.67,3.83 -0.4,0.11 -0.5,-0.21 -0.51,-0.56 -0.02,-0.73 0.01,-1.57 0.03,-2.31 -0.01,-0.91 0.13,-3 -0.05,-3.75 -0.3,-1.28 -1.51,-0.92 -2.48,-0.42 -1.1,0.57 -0.88,1.1 -0.96,2.85 -0.06,1.25 0.01,2.63 -0.08,3.83 0.18,1.19 0.21,2.13 0.73,3.12 0.33,0.62 1.27,1.64 2.28,1.72 1.15,0.09 2,-0.92 2.46,-1.55 0.76,-1.05 1.04,-2.27 1.33,-2.61 0.53,0.6 1.06,1.44 2.21,1.55 1.89,0.18 3.17,-2.59 3.71,-4.01l0.71 -2.19c0.08,-0.3 0.1,-0.55 0.26,-0.71 0.13,2.4 -0.65,4.97 1.52,4.42 2.38,-0.6 1.83,-1.4 1.98,-4.27 0.06,-1.38 0.03,-2.4 0.33,-3.71 0.2,-0.86 0.55,-2.56 0.98,-3.18 0.08,1.45 -0.12,4.75 0.08,5.76 0.11,0.59 0.38,0.94 0.53,1.4 1.02,1.04 1.25,1.55 3.21,0.94 0.33,-0.31 0.69,-0.49 1,-0.8 0.79,-0.79 1.63,-2.46 1.98,-3.58 0.87,0.89 2.06,2.21 3.98,1.35 1.43,-0.64 1.82,-2.15 2.44,-3.36 1.83,2.21 3.83,0.98 4.89,-1.1 0.22,-0.43 0.68,-1.64 0.91,-1.92 0.39,0.45 0.8,0.93 1.59,1.21 1.56,0.54 2.91,-0.15 3.71,-1.53 0.19,-0.33 0.79,-1.69 0.93,-1.86 0.38,0.25 1.82,2.18 3.65,0.46 1.48,-1.39 1.51,-2.6 2.07,-3.39 0.7,0.66 2.29,2.88 4.35,0.31 0.33,-0.42 0.58,-0.99 0.91,-1.43 0.09,0.42 0.08,0.86 0.11,1.3 0.13,1.5 -0.61,1.63 -2.04,2.37 -1.3,0.67 -2.6,1.31 -3.93,1.96 -2.45,1.2 -23.07,11.45 -23.67,11.52 -0.19,0.22 -1.55,0.83 -1.84,0.97l-9.63 4.63c-5.13,2.41 -10.26,4.99 -15.37,7.42l-3.92 1.87 0.02 -0.35c-0.13,0.63 0.08,0.34 -1.37,1.04 -0.57,0.27 -1.07,0.54 -1.64,0.82 -5.52,2.66 -11.13,5.34 -14.31,10.68 -1.2,2.01 -2.27,4.87 -2.27,7.75l6.3 -6.35c0.82,-0.67 1.54,-1.27 2.43,-1.88 2.67,-1.83 5.36,-3.07 8.11,-4.64l2.86 -1.5c0.39,-0.35 2.71,-1.46 3.34,-1.8 1.14,-0.61 2.25,-1.18 3.39,-1.8 2.25,-1.23 4.56,-2.4 6.79,-3.56 1.5,-0.74 3.06,-1.57 4.54,-2.36 0.78,-0.42 1.5,-0.77 2.25,-1.18 0.54,-0.29 1.78,-1.02 2.29,-1.14 0.18,-0.18 10.67,-5.66 11.07,-5.75 0.15,-0.18 0.43,-0.29 0.64,-0.4l2.26 -1.18c0.98,-0.52 2.04,-1.04 3.02,-1.56 3.79,-2.04 8.17,-4.19 11.86,-6.26l5.88 -3.15c-0.17,1.83 -0.11,2.48 0.98,3.51 2.05,1.93 4.64,0.14 5.23,-2.52 0.39,-1.77 0.12,-2.81 0.19,-4.52 0.58,-0.46 1.28,-0.78 1.93,-1.19 1.62,-1.02 4.04,-2.73 5.29,-4.12 1.72,-1.91 4.14,-5.14 2.53,-9.06 -2.06,-5.02 -5.79,-4.74 -6.74,-2.01 -0.54,1.57 -0.72,3.44 -1.18,5.07 -0.32,1.15 -1.28,3.65 -1.86,4.44l-0.04 -6.15c-0,-0.84 0.16,-2.16 -0.38,-2.68 -0.57,-0.54 -1.82,-0.01 -2.32,0.31 -0.82,0.52 -0.72,1.08 -0.79,2.28 -0.1,1.57 -0.26,3.89 -0.85,5.3 -0.36,0.86 -0.79,1.38 -1.13,2.01l-0.52 -0.06c-0.25,-0.88 -0.07,-4.58 -0.05,-5.76 0.02,-0.97 -0.16,-1.81 -1.23,-1.68 -0.73,0.09 -1.7,0.54 -1.96,0.96 -0.34,0.55 -0.39,4.23 -0.53,5.26 -0.13,0.94 -0.32,1.49 -0.67,2.25l-0.81 1.39c-0.21,0.27 -0.14,0.27 -0.59,0.16 -0.36,-0.74 -0.08,-4.92 -0.15,-6.13 -0.06,-1.11 -0.43,-1.56 -1.62,-1.23 -0.86,0.24 -1.63,0.55 -1.75,1.43 -0.85,-0.23 -1.1,-0.46 -2.15,-0.23 -1.81,0.4 -2.95,2.01 -3.64,3.83 -0.6,1.58 -0.59,2.45 -0.72,4.2 -0.09,1.21 -1.05,2.71 -1.56,3.43 -0.77,-0.04 -0.55,-0.67 -0.56,-1.4 -0.05,-4.44 0.15,-9.13 0.12,-13.55 -0.01,-1.56 -0.81,-1.76 -2.16,-1.25 -1.31,0.49 -1.32,0.95 -1.39,2.48 -0.12,2.54 -0.13,5.09 -0.21,7.63 -0.88,-0.16 -1.07,-0.36 -2.1,-0.07 -1.85,0.51 -2.97,2.36 -3.6,4.23 -0.79,2.36 -0.27,3.3 -1.59,6.15 -0.14,0.31 -0.28,0.59 -0.45,0.87l-0.59 0.74c-0.89,-1.31 1.09,-7.21 -2.04,-7.83 -2.49,-0.49 -3.1,2.09 -3.41,2.51 -0.34,-0.37 -0.37,-0.56 -1.01,-0.82 -1.6,-0.64 -2.57,1.02 -3.08,2.4 -0.72,1.94 -0.61,4.53 -1.28,6.29z"/>
   <path class="fil3" d="M84.18 33.39c-1.29,0.19 -4.7,2.35 -5.98,3.11 -1.92,1.14 -3.83,2.23 -5.8,3.35 -0.93,0.53 -1.98,1.09 -2.85,1.64 -2.57,1.62 -2,4.14 -2,7.17 0,1.53 0,3.05 0,4.58 0,2 -0.3,7.22 0.4,8.68 0.56,1.15 1.27,1.56 2.37,2.21l11.55 6.66c3.06,1.74 3.67,1.18 6.58,-0.46l8.7 -5.02c5.28,-2.95 4.82,-2.79 4.82,-8.82 0,-1.53 0,-3.05 0,-4.58 0,-2.01 0.31,-7.17 -0.4,-8.66 -0.54,-1.14 -1.28,-1.59 -2.37,-2.21 -0.99,-0.57 -1.93,-1.13 -2.9,-1.68l-8.65 -4.99c-1.05,-0.59 -1.92,-1.22 -3.47,-0.99z"/>
   <path class="fil1" d="M242.02 58.77l-12.01 -3.64c-0.68,3.87 -1.82,7.4 -6.45,7.36 -4.69,-0.03 -5.61,-3.6 -5.79,-8.02 -0.19,-4.61 0.38,-8.52 3.78,-10.02 1.76,-0.78 4.12,-0.54 5.52,0.43 1.45,1 1.99,2.18 2.58,4.38 0.6,-0.01 11.9,-2.58 12.12,-2.71 -0.62,-2.84 -2.37,-5.86 -4.13,-8.01 -0.17,-0.21 -0.39,-0.37 -0.58,-0.56 -4.36,-4.35 -10.82,-5.23 -17.44,-4.34 -4.39,0.59 -8.9,2.79 -11.48,6.28 -2.76,3.73 -4,8.14 -3.87,14.02 0.13,5.58 1.8,10.08 4.56,13.24 3.33,3.8 6.45,5.3 12.01,5.84 5.78,0.55 10.74,-0.14 14.64,-2.94 2.94,-2.11 5.69,-6.23 6.55,-11.3z"/>
   <path class="fil1" d="M354.44 42.98c2.61,-0.03 6.33,-0.43 6.32,2.95 -0,3.07 -3.63,2.92 -6.36,2.89l0.04 -5.84zm-13.56 28.88c0.84,0.11 11.73,0.04 13.52,0.04l0 -13.47c6.74,-0.1 11.63,0.41 15.92,-3.44 1.48,-1.33 2.8,-3.55 3.34,-6.33 0.53,-2.75 0.3,-6.14 -0.7,-8.54 -1.96,-4.7 -6.19,-6.76 -12.67,-6.78 -1.3,-0 -18.58,-0.11 -19.41,0.04l0 38.48z"/>
   <path class="fil1" d="M24.3 56.71c0.18,2.36 0.96,4.81 1.88,6.68 1.29,2.63 3.43,5.25 5.87,6.89 2.84,1.91 6.48,2.65 10.01,2.82 9.46,0.48 15.73,-2.45 18.87,-10.96 0.26,-0.71 0.85,-2.65 0.9,-3.38l-11.93 -3.64c-0.57,1.02 -0.58,6.43 -5.03,7.23 -1.19,0.21 -2.63,0.15 -3.69,-0.25 -3.28,-1.22 -3.57,-5.33 -3.59,-8.71 -0.01,-1.41 0.17,-2.52 0.25,-3.85 -2.24,1.16 -4.55,2.33 -6.79,3.56 -1.14,0.62 -2.25,1.19 -3.39,1.8 -0.63,0.34 -2.96,1.45 -3.34,1.8z"/>
   <path class="fil2" d="M247.16 71.86l11.53 0.04c-0.29,-1.24 -0.66,-1.63 -0.58,-3.36 0.04,-0.98 0.36,-2.33 0.79,-3.05 0.3,1.58 0.76,3.94 2.34,4.66 -0.25,-1.22 -0.93,-2.02 -0.83,-4.26 0.13,-2.94 1.87,-4.67 3.31,-6.91 0.81,-1.26 1.2,-2.11 0.83,-3.93 1,0.4 2.09,1.71 2.58,2.74 0.64,1.38 0.84,2.86 0.82,4.57 0.18,-0.22 0.29,-0.49 0.47,-0.79 0.48,-0.79 1.32,-1.49 2.26,-1.79 -0.03,0.92 -0.47,1.57 -0.07,3.33 0.77,3.4 3.23,3.5 2.22,8.79l11.19 0 -18.4 -31.94 -18.47 31.9z"/>
   <path class="fil2" d="M24.72 46.9c0.43,-0.78 0.88,-2.36 1.09,-3.32 0.03,-2.16 0.46,-2.45 0.09,-5.59 -0.6,-5.04 -2.85,-8.58 -4.04,-14.19 -0.35,-1.66 -0.66,-3.74 -0.37,-5.49 0.87,-5.18 4.86,-2.3 4.35,2.23 -0.1,0.87 -0.4,1.68 -0.82,2.19 -0.5,0.6 -0.74,1.63 -0.04,2.17 0.91,0.38 2.57,-2.04 2.97,-2.76 2.66,-4.74 -0.73,-10.42 -6.26,-8.64 -2.75,0.88 -4.39,3.37 -4.67,6.84 -0.33,4.13 1.95,9.91 3.23,13.95 0.47,1.5 0.78,3.16 1.01,4.79 0.44,3.25 0.51,7.41 -1.37,9.56 -2.36,2.69 -5.17,1.89 -7.1,-1.26 -2.04,-3.32 -2.03,-11.5 0.54,-13.92 1.22,-1.15 2.66,-1.2 3.36,0.96 0.45,1.39 0.54,3.66 0.17,5.12 -0.2,0.78 -0.4,1.8 0.65,1.8 0.91,-0 1.12,-0.73 1.46,-1.44 2.29,-4.75 0.33,-11.18 -5.46,-9.42 -4.61,1.41 -6.36,6.48 -6.4,10.95 -0.07,7.14 5,12.7 11.5,10.95 1.76,-0.47 2.67,-1.15 3.7,-2.1 1.08,-1.01 1.56,-1.87 2.41,-3.39z"/>
   <path class="fil1" d="M29.72 38.05l-1.17 1.15c-1.4,1.68 -1.72,2.4 -2.74,4.39 -0.22,0.96 -0.67,2.54 -1.09,3.32 -0.04,0.56 -0.24,1.27 -0.32,1.86 -0.1,0.67 -0.18,1.35 -0.22,2.04l-0.02 0.35 3.92 -1.87c5.11,-2.43 10.24,-5.01 15.37,-7.42l9.63 -4.63c0.29,-0.14 1.65,-0.75 1.84,-0.97 -0.96,-0.56 -1.7,-1.06 -2.89,-1.52 -1.96,0.62 -2.19,0.1 -3.21,-0.94l-1.92 -0.28c-0.15,2.87 0.4,3.67 -1.98,4.27 -2.17,0.55 -1.39,-2.02 -1.52,-4.42 -0.17,0.16 -0.18,0.41 -0.26,0.71l-0.71 2.19c-0.54,1.42 -1.82,4.2 -3.71,4.01 -1.15,-0.11 -1.68,-0.95 -2.21,-1.55 -0.29,0.34 -0.57,1.56 -1.33,2.61 -0.45,0.63 -1.3,1.64 -2.46,1.55 -1,-0.08 -1.95,-1.1 -2.28,-1.72 -0.52,-0.99 -0.55,-1.94 -0.73,-3.12z"/>
   <path class="fil0" d="M122.18 61.4c2.5,0 5.71,0.26 7.16,-1.57 1.38,-1.73 1.5,-4.64 1.49,-7.22 -0.02,-7.83 -2.13,-8.8 -8.67,-8.8l0.02 17.59z"/>
   <path class="fil3" d="M220.22 88.32c0.26,0.22 0.49,0.66 0.99,0.48 0.44,-0.16 0.34,-0.78 0.34,-1.26 0,-0.87 -0.08,-2.32 0.03,-3.13l1.04 0.01c0.1,0.8 0.1,4.1 -0.17,4.65 -0.53,1.07 -2.67,1.03 -3.06,-0.3l0.82 -0.46zm3.87 -0.09c0.43,0.23 0.44,0.57 1.07,0.61 0.47,0.03 1.04,-0.25 0.74,-0.79 -0.22,-0.4 -1.57,-0.69 -2.03,-1.33 -0.58,-0.81 -0.18,-1.87 0.54,-2.21 0.63,-0.3 1.93,-0.28 2.34,0.76 -0.3,0.11 -0.46,0.29 -0.8,0.46l-0.15 -0.14c-0.01,-0.01 -0.03,-0.03 -0.05,-0.05 -0.37,-0.32 -0.79,-0.3 -0.97,-0.04 -0.73,1.05 2.15,0.87 2.3,2.57 0.2,2.24 -3.21,2.23 -3.77,0.6l0.8 -0.45zm-7.75 2.43l11.61 0 0 -11.61 -11.61 0 0 11.61z"/>
   <path class="fil1" d="M265.61 38.03c1.27,1.91 3.81,6.33 5.14,8.57l14.18 23.74c0.21,0.36 0.44,0.75 0.65,1.11 0.42,0.71 1.73,0.57 0.77,-1.03l-20.04 -33.56c0.24,-0.65 1.81,-2.61 1.54,-3.2 -0.12,-0.26 -0.45,-0.4 -0.76,-0.26 -0.32,0.14 -1.32,1.96 -1.44,2.25l-0.4 -0.54c-0.21,-0.37 -0.89,-1.6 -1.11,-1.71 -0.49,-0.25 -1,0.16 -0.82,0.73l1.41 2.39c0.27,0.46 -0.06,0.72 -0.35,1.2l-7.05 11.78c-3.76,6.33 -7.5,12.54 -11.26,18.83 -0.46,0.77 -0.9,1.51 -1.38,2.32 -0.24,0.4 -0.45,0.96 0.14,1.16 0.56,0.18 0.81,-0.45 1.02,-0.79 0.95,-1.6 1.87,-3.12 2.83,-4.73l14.08 -23.57c0.41,-0.68 2.55,-4.39 2.83,-4.69z"/>
   <path class="fil3" d="M205.81 78.81c-0.52,0.15 -1.36,0.72 -1.85,1 -0.6,0.35 -1.21,0.71 -1.84,1.06 -1.79,1.01 -1.37,1.14 -1.37,4.38 0,3.39 -0.35,2.4 3.79,4.87 0.55,0.33 1.27,0.9 2.05,0.68l3.65 -2.07c1.79,-1.02 1.38,-1.1 1.38,-4.36 0,-3.2 0.43,-2.49 -3.75,-4.88 -0.54,-0.31 -1.27,-0.91 -2.05,-0.68z"/>
   <path class="fil0" d="M52.03 34.74c1.19,0.46 1.92,0.96 2.89,1.52 0.6,-0.07 21.22,-10.32 23.67,-11.52 1.33,-0.65 2.64,-1.3 3.93,-1.96 1.43,-0.74 2.17,-0.87 2.04,-2.37 -0.04,-0.44 -0.03,-0.88 -0.11,-1.3 -0.33,0.43 -0.58,1.01 -0.91,1.43 -2.06,2.56 -3.66,0.35 -4.35,-0.31 -0.55,0.79 -0.59,2 -2.07,3.39 -1.83,1.72 -3.27,-0.21 -3.65,-0.46 -0.14,0.17 -0.74,1.53 -0.93,1.86 -0.8,1.38 -2.14,2.06 -3.71,1.53 -0.79,-0.27 -1.2,-0.76 -1.59,-1.21 -0.22,0.28 -0.69,1.49 -0.91,1.92 -1.06,2.08 -3.06,3.32 -4.89,1.1 -0.62,1.21 -1.01,2.72 -2.44,3.36 -1.92,0.86 -3.1,-0.47 -3.98,-1.35 -0.35,1.11 -1.19,2.79 -1.98,3.58 -0.31,0.31 -0.67,0.48 -1,0.8z"/>
   <path class="fil1" d="M188.37 81.66c1.87,0 3.61,-0.34 3.59,0.95 -0.01,0.79 -0.56,0.9 -1.3,0.93 -0.75,0.04 -1.53,0.02 -2.3,0.02l0.01 -1.91zm-3.05 9.1c3.84,0 3.04,0.79 3.04,-4.58 1.56,0.03 1.57,0.48 2.82,2.33 1.78,2.62 1.18,2.25 2.82,2.24 0.59,-0 2.03,0.25 1.98,-0.47 -0.02,-0.27 -2.06,-3.42 -2.48,-3.93 -0.2,-0.25 -0.41,-0.41 -0.61,-0.67 0.69,-0.45 1.41,-0.56 1.94,-1.81 0.42,-1 0.35,-2.37 -0.17,-3.25 -1.33,-2.22 -4.49,-1.7 -7.78,-1.7 -0.49,0 -1.43,-0.19 -1.57,0.35 -0.08,0.3 -0.08,10.97 0.02,11.48z"/>
   <path class="fil1" d="M46.91 44.88c0.66,0.49 1.24,0.99 1.67,1.83 0.34,0.65 0.65,2.07 0.96,2.55l12.05 -2.66c-0.12,-1.31 -1.64,-4.45 -2.46,-5.78 -0.38,-0.63 -0.81,-1.13 -1.16,-1.68 -0.39,0.08 -10.88,5.56 -11.07,5.75z"/>
   <path class="fil1" d="M173.35 83.91l-0.03 -2.22c1.13,-0 3.01,-0.27 3.01,1.1 -0.01,1.36 -1.85,1.12 -2.98,1.12zm-3.07 6.77l2.35 0.03c1.39,-0 0.37,-1.93 0.74,-4.1 1.43,-0 3,0.1 4.18,-0.48 2.29,-1.12 2.61,-4.65 0.58,-6.37 -1.26,-1.07 -5.04,-0.77 -7.17,-0.77 -0.69,0 -0.68,0.14 -0.68,0.8l0 10.89z"/>
   <path class="fil1" d="M156.83 83.71l-0 2.55 7.75 4.67 0.01 -2.95c-0.23,-0.22 -4.96,-2.82 -5.37,-2.97 0.02,-0.02 0.04,-0.07 0.05,-0.05 0.01,0.02 0.04,-0.04 0.05,-0.05l5.27 -2.85 -0 -3.01 -5.8 3.45c-0.54,0.32 -1.52,0.84 -1.96,1.2z"/>
   <path class="fil1" d="M237.21 81.92l5.36 2.88c-0.23,0.3 -4.69,2.65 -5.36,2.98l0 3.03 7.74 -4.66c0.03,-2.05 0.28,-2.44 -0.35,-2.83l-5.38 -3.24c-0.57,-0.35 -1.42,-0.92 -2,-1.17l0 3.01z"/>
   <path class="fil0" d="M88.51 19.62c1.63,-0.74 4.58,-3.03 5.66,-4.47 0.68,-0.91 1.39,-1.93 1.66,-3.36 0.45,-2.39 -0.91,-5.68 -2.37,-4.83 -1.16,0.68 -0.99,3.48 -1.71,5.85 -0.57,1.9 -1.29,3.62 -2.3,5.27 -0.26,0.43 -0.76,1.1 -0.94,1.54z"/>
   <path class="fil0" d="M354.4 48.82c2.73,0.04 6.36,0.19 6.36,-2.89 0,-3.38 -3.71,-2.98 -6.32,-2.95l-0.04 5.84z"/>
   <path class="fil1" d="M232.1 90.59l1.53 -0 2.85 -11.7 -1.57 -0c-0.17,0.28 -2.81,11.14 -2.81,11.71z"/>
   <path class="fil0" d="M72.01 15.65c-1.24,0.14 -1.81,1.34 -2.04,2.6 -0.63,3.45 0.88,5.08 1.82,3.31 0.25,-0.48 0.39,-1.2 0.47,-1.81 0.18,-1.34 0.19,-2.98 -0.26,-4.1z"/>
   <path class="fil0" d="M59.96 20.9c-1.08,-0.01 -1.76,1.43 -1.97,2.5 -0.68,3.47 0.86,5.21 1.83,3.33 0.69,-1.33 0.67,-5.13 0.14,-5.84z"/>
   <path class="fil4" d="M224.09 88.23l-0.8 0.45c0.57,1.63 3.98,1.64 3.77,-0.6 -0.15,-1.7 -3.03,-1.52 -2.3,-2.57 0.18,-0.26 0.6,-0.27 0.97,0.04 0.02,0.01 0.03,0.03 0.05,0.05l0.15 0.14c0.34,-0.16 0.5,-0.34 0.8,-0.46 -0.41,-1.04 -1.71,-1.06 -2.34,-0.76 -0.71,0.34 -1.12,1.4 -0.54,2.21 0.46,0.64 1.81,0.93 2.03,1.33 0.3,0.54 -0.26,0.82 -0.74,0.79 -0.63,-0.04 -0.64,-0.38 -1.07,-0.61z"/>
   <path class="fil4" d="M220.22 88.32l-0.82 0.46c0.39,1.33 2.54,1.37 3.06,0.3 0.27,-0.55 0.27,-3.85 0.17,-4.65l-1.04 -0.01c-0.11,0.81 -0.03,2.26 -0.03,3.13 0,0.47 0.09,1.1 -0.34,1.26 -0.5,0.18 -0.73,-0.26 -0.99,-0.48z"/>
   <path class="fil0" d="M46.9 33.52l1.92 0.28c-0.16,-0.47 -0.42,-0.81 -0.53,-1.4 -0.19,-1.01 0.01,-4.31 -0.08,-5.76 -0.43,0.62 -0.79,2.31 -0.98,3.18 -0.29,1.31 -0.27,2.33 -0.33,3.71z"/>
   <path class="fil0" d="M188.36 83.57c0.77,0 1.54,0.01 2.3,-0.02 0.75,-0.04 1.29,-0.15 1.3,-0.93 0.02,-1.29 -1.72,-0.95 -3.59,-0.95l-0.01 1.91z"/>
   <path class="fil0" d="M173.35 83.91c1.13,0 2.97,0.23 2.98,-1.12 0.01,-1.38 -1.87,-1.11 -3.01,-1.1l0.03 2.22z"/>
   <path class="fil1" d="M33.28 35.54c-0.02,0.73 -0.05,1.58 -0.03,2.31 0.01,0.35 0.1,0.67 0.51,0.56 0.33,-0.09 1.79,-2.53 1.67,-3.83 -0.07,0.06 -1.94,0.88 -2.15,0.96z"/>
   <path class="fil5" d="M216.34 79.05l11.61 0 -0 11.61 -11.61 0 -0 -11.61zm-0.08 11.71l11.75 0.02 0.04 -11.75 -11.78 -0.04 -0.01 11.77z"/>
   <path class="fil1" d="M39.33 33.64c-0.05,0.45 -0.03,0.92 -0.02,1.38 0.01,0.56 -0.01,0.73 0.56,0.76 0.53,-0.58 0.93,-1.47 1.31,-2.34l-1.85 0.2z"/>
   <path class="fil0" d="M84 28.45c0.65,0.01 0.77,-2.26 0.74,-3.03 -0.42,0.48 -1.1,2.3 -0.74,3.03z"/>
  </g>
 </g>
</svg>
